<svg width="166" height="36" viewBox="0 0 166 36" fill="none" xmlns="http://www.w3.org/2000/svg">
<g clip-path="url(#clip0)">
<path d="M50.2161 20.5601C50.8903 21.4765 51.2368 22.593 51.2 23.7301C51.2359 24.5338 51.0645 25.3331 50.7019 26.0512C50.3394 26.7693 49.798 27.3819 49.13 27.8301C47.306 28.9001 45.2033 29.3992 43.093 29.2631H32.6121V8.99503H42.512C44.5092 8.86915 46.4965 9.36457 48.201 10.4131C48.8296 10.8357 49.341 11.4104 49.6879 12.0837C50.0347 12.7569 50.2058 13.507 50.1851 14.2641C50.2003 15.1913 49.9542 16.1042 49.475 16.8981C48.995 17.6775 48.3087 18.3087 47.4921 18.7221C48.5705 19.0335 49.5236 19.6766 50.2161 20.5601V20.5601ZM37.2729 12.5251V17.302H41.9351C42.8539 17.3613 43.7699 17.15 44.5699 16.6941C44.8628 16.4987 45.0998 16.2304 45.2576 15.9157C45.4154 15.601 45.4886 15.2506 45.47 14.8991C45.4896 14.5493 45.4168 14.2005 45.2588 13.8879C45.1008 13.5752 44.8632 13.3097 44.5699 13.1181C43.7665 12.6723 42.852 12.4664 41.9351 12.5251H37.2729ZM45.5391 25.12C45.8488 24.9181 46.0993 24.6374 46.2646 24.3067C46.43 23.9759 46.5043 23.6071 46.48 23.2381C46.48 21.5587 45.235 20.719 42.745 20.719H37.2729V25.7281H42.745C43.7148 25.7905 44.6828 25.5798 45.5391 25.12V25.12Z" fill="#151F6D"/>
<path d="M69.036 13.683V29.262H64.751V27.409C64.161 28.0786 63.4288 28.6079 62.6079 28.9581C61.7565 29.3197 60.8398 29.5021 59.9149 29.4941C59.0271 29.5406 58.1391 29.4082 57.3035 29.1047C56.4679 28.8011 55.7019 28.3325 55.051 27.727C54.412 27.0208 53.9229 26.1924 53.6135 25.2917C53.3041 24.391 53.1808 23.4368 53.251 22.487V13.6871H57.7679V21.8231C57.7679 24.3324 58.8199 25.5871 60.9239 25.5871C61.4086 25.6075 61.8921 25.5237 62.3417 25.3414C62.7912 25.159 63.1964 24.8824 63.5299 24.5301C64.2465 23.6469 64.5985 22.5233 64.5139 21.3891V13.689L69.036 13.683Z" fill="#151F6D"/>
<path d="M71.988 8.995L76.5049 10.7881V29.2621H71.988V8.995Z" fill="#151F6D"/>
<path d="M79.4921 10.786L84.0081 8.99304V29.26H79.4921V10.786Z" fill="#151F6D"/>
<path d="M88.8969 29.016C87.8542 28.7784 86.8569 28.3731 85.9439 27.816L87.4489 24.573C88.2313 25.0556 89.08 25.4215 89.968 25.659C90.9104 25.9335 91.8865 26.0748 92.868 26.079C94.7793 26.079 95.7346 25.606 95.734 24.66C95.7293 24.4363 95.6497 24.2206 95.5079 24.0475C95.3661 23.8743 95.1704 23.7538 94.952 23.7051C94.1717 23.4565 93.3671 23.2915 92.552 23.213C91.4858 23.0646 90.4312 22.842 89.396 22.547C88.5724 22.3003 87.8284 21.8409 87.239 21.2151C86.5893 20.4628 86.2617 19.4849 86.327 18.493C86.3137 17.5492 86.6141 16.6277 87.181 15.873C87.8257 15.0557 88.6892 14.4381 89.671 14.092C90.9091 13.6422 92.22 13.4262 93.537 13.4551C94.6422 13.4559 95.7441 13.5772 96.823 13.817C97.7726 14.0058 98.6866 14.3432 99.531 14.817L98.025 18.031C96.6563 17.2593 95.1092 16.8601 93.5381 16.873C92.7918 16.8283 92.046 16.9674 91.3661 17.2781C91.1594 17.366 90.9817 17.5105 90.8536 17.6951C90.7255 17.8796 90.6521 18.0966 90.6419 18.321C90.6398 18.5531 90.7158 18.7792 90.8576 18.9629C90.9995 19.1466 91.199 19.2772 91.424 19.334C92.2353 19.5938 93.0688 19.778 93.914 19.884C94.969 20.0483 96.0132 20.2757 97.041 20.5651C97.8511 20.8057 98.5812 21.2607 99.154 21.8821C99.789 22.6192 100.112 23.5748 100.054 24.546C100.065 25.4787 99.7586 26.3875 99.185 27.123C98.5229 27.9347 97.6442 28.5422 96.651 28.875C95.3812 29.3163 94.0429 29.5273 92.6989 29.498C91.4163 29.4994 90.1387 29.3374 88.8969 29.016Z" fill="#151F6D"/>
<path d="M117.329 22.745H105.544C105.732 23.6732 106.272 24.4927 107.05 25.032C107.922 25.6153 108.955 25.909 110.003 25.8711C110.738 25.8842 111.469 25.7614 112.16 25.509C112.815 25.2499 113.411 24.8607 113.912 24.365L116.312 26.9711C115.493 27.8398 114.492 28.5162 113.381 28.9518C112.27 29.3874 111.076 29.5712 109.885 29.49C108.271 29.5221 106.673 29.1698 105.223 28.4621C103.929 27.83 102.844 26.8402 102.096 25.61C101.353 24.3586 100.972 22.9254 100.996 21.4701C100.976 20.0216 101.351 18.595 102.082 17.344C102.793 16.1317 103.825 15.1397 105.065 14.478C106.369 13.7829 107.828 13.4293 109.306 13.4501C110.746 13.4299 112.169 13.7681 113.446 14.4341C114.667 15.0763 115.677 16.0563 116.356 17.2571C117.081 18.5618 117.446 20.0359 117.413 21.5281C117.415 21.5868 117.387 21.9923 117.329 22.745ZM106.761 17.7361C106.053 18.3392 105.598 19.1867 105.487 20.11H113.16C113.042 19.1929 112.588 18.3521 111.886 17.75C111.173 17.1548 110.267 16.8409 109.338 16.8671C108.402 16.8373 107.487 17.1458 106.761 17.7361Z" fill="#151F6D"/>
<path d="M134.586 13.683L127.55 30.216C127.053 31.7097 126.132 33.027 124.901 34.008C123.778 34.7625 122.447 35.1472 121.094 35.1081C120.279 35.107 119.47 34.9801 118.694 34.732C117.981 34.5243 117.321 34.1693 116.754 33.69L118.405 30.476C118.758 30.7882 119.164 31.0335 119.605 31.2C120.034 31.3692 120.49 31.4577 120.951 31.461C121.489 31.4853 122.019 31.3271 122.456 31.012C122.919 30.6065 123.277 30.095 123.499 29.5211L123.557 29.376L116.811 13.683H121.472L125.844 24.251L130.244 13.683H134.586Z" fill="#151F6D"/>
<path d="M150.278 22.745H138.494C138.682 23.6732 139.221 24.4928 140 25.032C140.871 25.6155 141.905 25.9092 142.953 25.8711C143.688 25.8843 144.419 25.7615 145.11 25.509C145.765 25.2501 146.361 24.8608 146.862 24.365L149.262 26.9711C148.443 27.8399 147.442 28.5163 146.331 28.9519C145.219 29.3875 144.025 29.5712 142.834 29.49C141.221 29.5221 139.623 29.1698 138.173 28.462C136.879 27.83 135.794 26.8401 135.046 25.61C134.303 24.3586 133.922 22.9254 133.946 21.4701C133.926 20.0216 134.301 18.5949 135.032 17.344C135.742 16.1316 136.774 15.1397 138.014 14.478C139.318 13.7829 140.777 13.4293 142.255 13.4501C143.696 13.4298 145.119 13.7679 146.396 14.4341C147.617 15.0764 148.627 16.0564 149.306 17.2571C150.031 18.5619 150.395 20.0359 150.363 21.5281C150.364 21.5868 150.336 21.9923 150.278 22.745ZM139.71 17.7361C139.002 18.3394 138.548 19.1868 138.437 20.11H146.11C145.991 19.1929 145.538 18.3522 144.836 17.75C144.123 17.155 143.216 16.841 142.288 16.8671C141.353 16.8377 140.438 17.1462 139.712 17.7361H139.71Z" fill="#151F6D"/>
<path d="M154.157 29.016C153.114 28.7784 152.117 28.3732 151.204 27.816L152.71 24.573C153.492 25.0555 154.34 25.4214 155.228 25.659C156.17 25.9334 157.147 26.0747 158.128 26.079C160.039 26.079 160.994 25.606 160.994 24.66C160.989 24.4363 160.91 24.2206 160.768 24.0475C160.626 23.8743 160.43 23.7538 160.212 23.7051C159.432 23.4565 158.627 23.2916 157.812 23.213C156.746 23.0646 155.691 22.842 154.656 22.547C153.833 22.2999 153.089 21.8406 152.499 21.2151C151.85 20.4626 151.522 19.4849 151.587 18.493C151.574 17.5492 151.874 16.6277 152.441 15.873C153.085 15.0553 153.949 14.4376 154.931 14.092C156.169 13.6422 157.479 13.4263 158.796 13.4551C159.901 13.4559 161.003 13.5772 162.082 13.817C163.031 14.0058 163.945 14.3433 164.789 14.817L163.284 18.031C161.915 17.2591 160.368 16.8599 158.796 16.873C158.05 16.8284 157.304 16.9675 156.624 17.2781C156.417 17.366 156.24 17.5105 156.112 17.695C155.983 17.8796 155.91 18.0966 155.9 18.321C155.898 18.5531 155.974 18.7792 156.115 18.963C156.257 19.1467 156.457 19.2774 156.682 19.334C157.493 19.5938 158.327 19.778 159.172 19.884C160.227 20.0482 161.271 20.2756 162.299 20.565C163.109 20.8056 163.839 21.2607 164.412 21.8821C165.047 22.6191 165.37 23.5747 165.312 24.546C165.323 25.4787 165.017 26.3874 164.443 27.123C163.781 27.9348 162.902 28.5422 161.909 28.875C160.639 29.3162 159.301 29.5273 157.957 29.498C156.675 29.4992 155.398 29.3372 154.157 29.016V29.016Z" fill="#151F6D"/>
<path d="M5.44502 29.45L5.472 29.41L5.44502 29.45Z" fill="#C3C3CB"/>
<path d="M5.94199 22.321C5.94069 20.9051 5.64388 19.505 5.07066 18.2103C4.49743 16.9156 3.66043 15.7547 2.61301 14.802C2.57701 14.769 2.54104 14.734 2.51304 14.702C2.36404 14.562 2.22 14.417 2.077 14.27C0.79673 15.5946 0.0586696 17.3505 0.00803372 19.192C0.00803372 19.26 0.00803372 19.3289 0.00803372 19.3969C0.00613655 21.0809 0.359499 22.7464 1.04514 24.2845C1.73079 25.8226 2.73329 27.1987 3.98704 28.323C5.26519 26.5836 5.9505 24.4795 5.94199 22.321Z" fill="#D0D3D4"/>
<path d="M0.922012 0C1.8337 2.18822 3.37283 4.05754 5.34535 5.37231C7.31787 6.68709 9.63545 7.38852 12.006 7.38806C13.8307 7.38646 15.6317 7.80161 17.2715 8.60193C18.9113 9.40225 20.3467 10.5665 21.468 12.006C23.1197 14.1141 24.0152 16.716 24.011 19.394C24.0107 22.578 22.7458 25.6315 20.4945 27.8829C18.2432 30.1344 15.1899 31.3995 12.006 31.4C9.67544 31.4041 7.39464 30.7258 5.44496 29.449C6.97159 27.3864 7.79347 24.8871 7.78896 22.321C7.79098 20.6471 7.44186 18.9912 6.76405 17.4606C6.08625 15.93 5.09489 14.5586 3.85402 13.4351V13.4351C2.63618 12.3129 1.66462 10.9499 1.00087 9.43274C0.337115 7.91554 -0.00445169 6.27701 -0.00206042 4.62097C-0.00455519 3.03567 0.308878 1.46585 0.919937 0.00305176" fill="#151F6D"/>
</g>
<defs>
<clipPath id="clip0">
<rect width="165.305" height="35.109" fill="white"/>
</clipPath>
</defs>
</svg>
