<?xml version="1.0" encoding="utf-8"?>
<!-- Generator: Adobe Illustrator 25.4.1, SVG Export Plug-In . SVG Version: 6.00 Build 0)  -->
<svg version="1.1" id="레이어_1" xmlns="http://www.w3.org/2000/svg" xmlns:xlink="http://www.w3.org/1999/xlink" x="0px"
	 y="0px" viewBox="0 0 1082.02 248.21" style="enable-background:new 0 0 1082.02 248.21;" xml:space="preserve">
<style type="text/css">
	.st0{fill:#223A5E;}
</style>
<g>
	<g>
		<path class="st0" d="M352.05,155.93c4.16,5.45,6.24,12.15,6.24,20.11c0,11.27-4.38,19.93-13.13,25.98
			c-8.75,6.06-21.52,9.09-38.29,9.09H240.4V82.56h62.81c15.67,0,27.7,3,36.09,9c8.38,6,12.58,14.14,12.58,24.42
			c0,6.24-1.5,11.82-4.5,16.71c-3,4.9-7.19,8.75-12.58,11.57C342.13,146.6,347.89,150.48,352.05,155.93z M269.96,104.97v30.3h29.57
			c7.35,0,12.92-1.29,16.71-3.86c3.79-2.57,5.69-6.36,5.69-11.39c0-5.02-1.9-8.78-5.69-11.3c-3.8-2.51-9.37-3.76-16.71-3.76H269.96z
			 M322.39,184.85c3.98-2.57,5.97-6.55,5.97-11.94c0-10.65-7.9-15.98-23.69-15.98h-34.71v31.77h34.71
			C312.5,188.71,318.41,187.42,322.39,184.85z"/>
		<path class="st0" d="M471.42,112.31v98.8h-27.18v-11.75c-3.8,4.29-8.33,7.56-13.59,9.83c-5.27,2.26-10.96,3.4-17.08,3.4
			c-12.98,0-23.26-3.73-30.85-11.2c-7.59-7.47-11.39-18.55-11.39-33.24v-55.83h28.65v51.6c0,15.92,6.67,23.87,20.02,23.87
			c6.86,0,12.36-2.23,16.53-6.7c4.16-4.47,6.24-11.11,6.24-19.93v-48.85H471.42z"/>
		<path class="st0" d="M490.15,82.56l28.65,11.37v117.17h-28.65V82.56z"/>
		<path class="st0" d="M537.71,93.94l28.65-11.37v128.55h-28.65V93.94z"/>
		<path class="st0" d="M597.39,209.55c-7.84-2.02-14.08-4.56-18.73-7.62l9.55-20.57c4.41,2.82,9.73,5.11,15.98,6.89
			c6.24,1.78,12.36,2.66,18.36,2.66c12.12,0,18.18-3,18.18-9c0-2.82-1.65-4.83-4.96-6.06c-3.31-1.22-8.39-2.26-15.24-3.12
			c-8.08-1.22-14.75-2.63-20.02-4.22c-5.27-1.59-9.82-4.41-13.68-8.45c-3.86-4.04-5.78-9.79-5.78-17.26c0-6.24,1.8-11.78,5.42-16.62
			c3.61-4.83,8.88-8.6,15.79-11.29c6.92-2.69,15.09-4.04,24.52-4.04c6.98,0,13.92,0.77,20.84,2.3c6.92,1.53,12.64,3.64,17.17,6.34
			l-9.55,20.38c-8.69-4.89-18.18-7.34-28.46-7.34c-6.12,0-10.71,0.86-13.77,2.57c-3.06,1.72-4.59,3.92-4.59,6.61
			c0,3.06,1.65,5.2,4.96,6.43c3.31,1.23,8.57,2.39,15.79,3.49c8.08,1.35,14.69,2.79,19.83,4.32c5.14,1.53,9.61,4.32,13.41,8.36
			c3.79,4.04,5.69,9.67,5.69,16.9c0,6.12-1.84,11.57-5.51,16.34c-3.67,4.77-9.03,8.48-16.07,11.11c-7.04,2.63-15.4,3.95-25.07,3.95
			C613.25,212.58,605.23,211.57,597.39,209.55z"/>
		<path class="st0" d="M777.73,169.8h-74.74c1.35,6.12,4.53,10.96,9.55,14.51c5.02,3.55,11.26,5.33,18.73,5.33
			c5.14,0,9.7-0.76,13.68-2.3c3.98-1.53,7.68-3.95,11.11-7.25l15.24,16.53c-9.31,10.65-22.9,15.98-40.77,15.98
			c-11.14,0-21-2.17-29.57-6.52c-8.57-4.34-15.18-10.37-19.83-18.09c-4.65-7.71-6.98-16.47-6.98-26.26c0-9.67,2.3-18.39,6.89-26.17
			c4.59-7.77,10.9-13.83,18.91-18.18c8.02-4.34,16.99-6.52,26.9-6.52c9.67,0,18.42,2.08,26.26,6.24
			c7.83,4.16,13.99,10.13,18.46,17.9c4.47,7.78,6.7,16.8,6.7,27.09C778.28,162.45,778.1,165.02,777.73,169.8z M710.7,138.02
			c-4.41,3.67-7.1,8.69-8.08,15.06h48.67c-0.98-6.24-3.67-11.23-8.08-14.97c-4.41-3.73-9.8-5.6-16.16-5.6
			C720.55,132.52,715.11,134.35,710.7,138.02z"/>
		<path class="st0" d="M887.18,112.31l-44.62,104.86c-4.53,11.39-10.13,19.4-16.8,24.06c-6.67,4.65-14.72,6.98-24.15,6.98
			c-5.14,0-10.22-0.8-15.24-2.39c-5.02-1.59-9.12-3.8-12.3-6.61l10.47-20.38c2.2,1.96,4.74,3.49,7.62,4.59
			c2.88,1.1,5.72,1.65,8.54,1.65c3.92,0,7.1-0.95,9.55-2.85c2.45-1.9,4.65-5.05,6.61-9.46l0.37-0.92l-42.79-99.53h29.57l27.73,67.03
			l27.91-67.03H887.18z"/>
		<path class="st0" d="M986.71,169.8h-74.74c1.35,6.12,4.53,10.96,9.55,14.51c5.02,3.55,11.26,5.33,18.73,5.33
			c5.14,0,9.7-0.76,13.68-2.3c3.98-1.53,7.68-3.95,11.11-7.25l15.24,16.53c-9.31,10.65-22.9,15.98-40.77,15.98
			c-11.14,0-21-2.17-29.57-6.52c-8.57-4.34-15.18-10.37-19.83-18.09c-4.65-7.71-6.98-16.47-6.98-26.26c0-9.67,2.3-18.39,6.89-26.17
			c4.59-7.77,10.89-13.83,18.91-18.18c8.02-4.34,16.99-6.52,26.9-6.52c9.67,0,18.42,2.08,26.26,6.24
			c7.83,4.16,13.99,10.13,18.46,17.9c4.47,7.78,6.7,16.8,6.7,27.09C987.26,162.45,987.08,165.02,986.71,169.8z M919.68,138.02
			c-4.41,3.67-7.1,8.69-8.08,15.06h48.67c-0.98-6.24-3.67-11.23-8.08-14.97c-4.41-3.73-9.8-5.6-16.16-5.6
			C929.54,132.52,924.09,134.35,919.68,138.02z"/>
		<path class="st0" d="M1011.32,209.55c-7.84-2.02-14.08-4.56-18.73-7.62l9.55-20.57c4.41,2.82,9.73,5.11,15.98,6.89
			c6.24,1.78,12.36,2.66,18.36,2.66c12.12,0,18.18-3,18.18-9c0-2.82-1.65-4.83-4.96-6.06c-3.31-1.22-8.39-2.26-15.24-3.12
			c-8.08-1.22-14.75-2.63-20.02-4.22c-5.27-1.59-9.83-4.41-13.68-8.45c-3.86-4.04-5.78-9.79-5.78-17.26c0-6.24,1.8-11.78,5.42-16.62
			c3.61-4.83,8.87-8.6,15.79-11.29c6.91-2.69,15.09-4.04,24.52-4.04c6.98,0,13.93,0.77,20.84,2.3c6.92,1.53,12.64,3.64,17.17,6.34
			l-9.55,20.38c-8.69-4.89-18.18-7.34-28.47-7.34c-6.12,0-10.71,0.86-13.77,2.57c-3.06,1.72-4.59,3.92-4.59,6.61
			c0,3.06,1.65,5.2,4.96,6.43c3.31,1.23,8.57,2.39,15.79,3.49c8.08,1.35,14.69,2.79,19.83,4.32c5.14,1.53,9.61,4.32,13.41,8.36
			c3.79,4.04,5.69,9.67,5.69,16.9c0,6.12-1.84,11.57-5.51,16.34c-3.67,4.77-9.03,8.48-16.07,11.11c-7.04,2.63-15.4,3.95-25.07,3.95
			C1027.17,212.58,1019.15,211.57,1011.32,209.55z"/>
	</g>
	<path class="st0" d="M173.85,83.14c-18.55-23.75-46.49-37.38-76.63-37.38c-20.85,0-39.51-12.44-47.53-31.68
		C46.15,5.56,37.83,0.01,28.6,0c-0.01,0-0.01,0-0.02,0c-9.22,0-17.54,5.54-21.1,14.04C2.51,25.9-0.01,38.5-0.01,51.48
		c0,17.78,4.95,35.11,13.97,50.12C5.21,113.12,0,127.46,0,143.01c0,33.4,16.95,62.9,42.69,80.41c0.45,0.35,0.9,0.69,1.38,1.01
		c15.81,10.35,34.2,15.82,53.16,15.82c53.62,0,97.24-43.62,97.24-97.24C194.47,121.07,187.34,100.38,173.85,83.14z M22.88,143.01
		c0-8.18,2.16-15.85,5.93-22.49c0.51,0.51,1.01,1.03,1.53,1.53c0.33,0.34,0.67,0.67,1.02,0.99c10.72,9.74,16.87,23.63,16.87,38.1
		c0,10.34-3.01,20.21-8.72,28.68C29.13,177.03,22.88,160.76,22.88,143.01z M97.23,217.36c-15,0-28.95-4.44-40.63-12.08
		c9.13-12.34,14.52-27.62,14.52-44.15c0-21.82-9.39-41.44-24.37-55.04l0.01-0.02c-14.69-13.57-23.89-33-23.89-54.59
		c0-10.14,2.03-19.8,5.71-28.6c11.2,26.87,37.72,45.76,68.65,45.76c23.81,0,45.01,11.19,58.61,28.6
		c9.87,12.62,15.75,28.5,15.75,45.76C171.59,184.07,138.29,217.36,97.23,217.36z"/>
</g>
</svg>
