<?xml version="1.0" encoding="utf-8"?>
<!-- Generator: Adobe Illustrator 25.4.1, SVG Export Plug-In . SVG Version: 6.00 Build 0)  -->
<svg version="1.1" id="레이어_1" xmlns="http://www.w3.org/2000/svg" xmlns:xlink="http://www.w3.org/1999/xlink" x="0px"
	 y="0px" viewBox="0 0 874.2 1080" style="enable-background:new 0 0 874.2 1080;" xml:space="preserve">
<style type="text/css">
	.st0{fill:#151F6D;}
</style>
<g>
	<g>
		<path class="st0" d="M781.6,373.8c-83.4-106.8-209-168.1-344.5-168.1c-93.8,0-177.6-55.9-213.7-142.4C207.4,25,170.1,0,128.6,0
			c0,0-0.1,0-0.1,0C87,0,49.6,24.9,33.6,63.1C11.3,116.4-0.1,173.1-0.1,231.4c0,79.9,22.2,157.9,62.8,225.3
			C23.4,508.5,0,573,0,642.9c0,150.2,76.2,282.8,191.9,361.5c2,1.6,4.1,3.1,6.2,4.5c71.1,46.5,153.7,71.1,239,71.1
			c241,0,437.1-196.1,437.1-437.1C874.2,544.3,842.2,451.2,781.6,373.8z M102.9,642.9c0-36.8,9.7-71.3,26.6-101.1
			c2.3,2.3,4.5,4.6,6.9,6.9c1.5,1.5,3,3,4.6,4.4c48.2,43.8,75.8,106.2,75.8,171.3c0,46.5-13.5,90.8-39.2,128.9
			C130.9,795.8,102.9,722.7,102.9,642.9z M437.1,977.1c-67.4,0-130.2-20-182.7-54.3c41-55.5,65.3-124.2,65.3-198.5
			c0-98.1-42.2-186.3-109.5-247.4l0.1-0.1c-66-61-107.4-148.4-107.4-245.4c0-45.6,9.1-89,25.7-128.6
			C178.8,223.7,298,308.6,437.1,308.6c107,0,202.3,50.3,263.5,128.6c44.4,56.7,70.8,128.1,70.8,205.7
			C771.4,827.5,621.7,977.1,437.1,977.1z"/>
	</g>
</g>
</svg>
