<?xml version="1.0" encoding="utf-8"?>
<!-- Generator: Adobe Illustrator 25.4.1, SVG Export Plug-In . SVG Version: 6.00 Build 0)  -->
<svg version="1.1" id="레이어_1" xmlns="http://www.w3.org/2000/svg" xmlns:xlink="http://www.w3.org/1999/xlink" x="0px"
	 y="0px" viewBox="0 0 1082 248.2" style="enable-background:new 0 0 1082 248.2;" xml:space="preserve">
<style type="text/css">
	.st0{fill:#151F6D;}
</style>
<g>
	<g>
		<g>
			<path class="st0" d="M352,155.9c4.2,5.4,6.2,12.1,6.2,20.1c0,11.3-4.4,19.9-13.1,26c-8.8,6.1-21.5,9.1-38.3,9.1h-66.5V82.6h62.8
				c15.7,0,27.7,3,36.1,9c8.4,6,12.6,14.1,12.6,24.4c0,6.2-1.5,11.8-4.5,16.7c-3,4.9-7.2,8.8-12.6,11.6
				C342.1,146.6,347.9,150.5,352,155.9z M270,105v30.3h29.6c7.4,0,12.9-1.3,16.7-3.9c3.8-2.6,5.7-6.4,5.7-11.4c0-5-1.9-8.8-5.7-11.3
				c-3.8-2.5-9.4-3.8-16.7-3.8L270,105L270,105z M322.4,184.9c4-2.6,6-6.6,6-11.9c0-10.6-7.9-16-23.7-16H270v31.8h34.7
				C312.5,188.7,318.4,187.4,322.4,184.9z"/>
			<path class="st0" d="M471.4,112.3v98.8h-27.2v-11.8c-3.8,4.3-8.3,7.6-13.6,9.8c-5.3,2.3-11,3.4-17.1,3.4
				c-13,0-23.3-3.7-30.9-11.2s-11.4-18.6-11.4-33.2v-55.8H400v51.6c0,15.9,6.7,23.9,20,23.9c6.9,0,12.4-2.2,16.5-6.7
				c4.2-4.5,6.2-11.1,6.2-19.9v-48.8L471.4,112.3L471.4,112.3z"/>
			<path class="st0" d="M490.1,82.6l28.6,11.4v117.2h-28.6V82.6z"/>
			<path class="st0" d="M537.7,93.9l28.7-11.4v128.5h-28.7V93.9z"/>
			<path class="st0" d="M597.4,209.6c-7.8-2-14.1-4.6-18.7-7.6l9.5-20.6c4.4,2.8,9.7,5.1,16,6.9c6.2,1.8,12.4,2.7,18.4,2.7
				c12.1,0,18.2-3,18.2-9c0-2.8-1.7-4.8-5-6.1c-3.3-1.2-8.4-2.3-15.2-3.1c-8.1-1.2-14.8-2.6-20-4.2s-9.8-4.4-13.7-8.4
				s-5.8-9.8-5.8-17.3c0-6.2,1.8-11.8,5.4-16.6c3.6-4.8,8.9-8.6,15.8-11.3c6.9-2.7,15.1-4,24.5-4c7,0,13.9,0.8,20.8,2.3
				c6.9,1.5,12.6,3.6,17.2,6.3l-9.5,20.4c-8.7-4.9-18.2-7.3-28.5-7.3c-6.1,0-10.7,0.9-13.8,2.6c-3.1,1.7-4.6,3.9-4.6,6.6
				c0,3.1,1.7,5.2,5,6.4s8.6,2.4,15.8,3.5c8.1,1.4,14.7,2.8,19.8,4.3c5.1,1.5,9.6,4.3,13.4,8.4c3.8,4,5.7,9.7,5.7,16.9
				c0,6.1-1.8,11.6-5.5,16.3c-3.7,4.8-9,8.5-16.1,11.1s-15.4,3.9-25.1,3.9C613.2,212.6,605.2,211.6,597.4,209.6z"/>
			<path class="st0" d="M777.7,169.8H703c1.3,6.1,4.5,11,9.5,14.5c5,3.6,11.3,5.3,18.7,5.3c5.1,0,9.7-0.8,13.7-2.3
				c4-1.5,7.7-3.9,11.1-7.2l15.2,16.5c-9.3,10.6-22.9,16-40.8,16c-11.1,0-21-2.2-29.6-6.5c-8.6-4.3-15.2-10.4-19.8-18.1
				c-4.7-7.7-7-16.5-7-26.3c0-9.7,2.3-18.4,6.9-26.2c4.6-7.8,10.9-13.8,18.9-18.2c8-4.3,17-6.5,26.9-6.5c9.7,0,18.4,2.1,26.3,6.2
				c7.8,4.2,14,10.1,18.5,17.9c4.5,7.8,6.7,16.8,6.7,27.1C778.3,162.4,778.1,165,777.7,169.8z M710.7,138c-4.4,3.7-7.1,8.7-8.1,15.1
				h48.7c-1-6.2-3.7-11.2-8.1-15c-4.4-3.7-9.8-5.6-16.2-5.6C720.5,132.5,715.1,134.4,710.7,138z"/>
			<path class="st0" d="M887.2,112.3l-44.6,104.9c-4.5,11.4-10.1,19.4-16.8,24.1c-6.7,4.6-14.7,7-24.2,7c-5.1,0-10.2-0.8-15.2-2.4
				s-9.1-3.8-12.3-6.6l10.5-20.4c2.2,2,4.7,3.5,7.6,4.6c2.9,1.1,5.7,1.6,8.5,1.6c3.9,0,7.1-0.9,9.5-2.9c2.5-1.9,4.7-5.1,6.6-9.5
				l0.4-0.9l-42.8-99.5H804l27.7,67l27.9-67L887.2,112.3L887.2,112.3z"/>
			<path class="st0" d="M986.7,169.8H912c1.3,6.1,4.5,11,9.5,14.5c5,3.6,11.3,5.3,18.7,5.3c5.1,0,9.7-0.8,13.7-2.3
				c4-1.5,7.7-3.9,11.1-7.2l15.2,16.5c-9.3,10.6-22.9,16-40.8,16c-11.1,0-21-2.2-29.6-6.5c-8.6-4.3-15.2-10.4-19.8-18.1
				c-4.7-7.7-7-16.5-7-26.3c0-9.7,2.3-18.4,6.9-26.2c4.6-7.8,10.9-13.8,18.9-18.2c8-4.3,17-6.5,26.9-6.5c9.7,0,18.4,2.1,26.3,6.2
				c7.8,4.2,14,10.1,18.5,17.9c4.5,7.8,6.7,16.8,6.7,27.1C987.3,162.4,987.1,165,986.7,169.8z M919.7,138c-4.4,3.7-7.1,8.7-8.1,15.1
				h48.7c-1-6.2-3.7-11.2-8.1-15c-4.4-3.7-9.8-5.6-16.2-5.6C929.5,132.5,924.1,134.4,919.7,138z"/>
			<path class="st0" d="M1011.3,209.6c-7.8-2-14.1-4.6-18.7-7.6l9.5-20.6c4.4,2.8,9.7,5.1,16,6.9c6.2,1.8,12.4,2.7,18.4,2.7
				c12.1,0,18.2-3,18.2-9c0-2.8-1.7-4.8-5-6.1c-3.3-1.2-8.4-2.3-15.2-3.1c-8.1-1.2-14.8-2.6-20-4.2s-9.8-4.4-13.7-8.4
				c-3.9-4-5.8-9.8-5.8-17.3c0-6.2,1.8-11.8,5.4-16.6c3.6-4.8,8.9-8.6,15.8-11.3c6.9-2.7,15.1-4,24.5-4c7,0,13.9,0.8,20.8,2.3
				c6.9,1.5,12.6,3.6,17.2,6.3l-9.6,20.4c-8.7-4.9-18.2-7.3-28.5-7.3c-6.1,0-10.7,0.9-13.8,2.6c-3.1,1.7-4.6,3.9-4.6,6.6
				c0,3.1,1.7,5.2,5,6.4c3.3,1.2,8.6,2.4,15.8,3.5c8.1,1.4,14.7,2.8,19.8,4.3c5.1,1.5,9.6,4.3,13.4,8.4c3.8,4,5.7,9.7,5.7,16.9
				c0,6.1-1.8,11.6-5.5,16.3c-3.7,4.8-9,8.5-16.1,11.1c-7,2.6-15.4,3.9-25.1,3.9C1027.2,212.6,1019.2,211.6,1011.3,209.6z"/>
		</g>
		<path class="st0" d="M173.9,83.1c-18.6-23.8-46.5-37.4-76.6-37.4c-20.8,0-39.5-12.4-47.5-31.7C46.2,5.6,37.8,0,28.6,0c0,0,0,0,0,0
			C19.4,0,11,5.5,7.5,14C2.5,25.9,0,38.5,0,51.5c0,17.8,4.9,35.1,14,50.1C5.2,113.1,0,127.5,0,143c0,33.4,17,62.9,42.7,80.4
			c0.5,0.4,0.9,0.7,1.4,1c15.8,10.4,34.2,15.8,53.2,15.8c53.6,0,97.2-43.6,97.2-97.2C194.5,121.1,187.3,100.4,173.9,83.1z M22.9,143
			c0-8.2,2.2-15.8,5.9-22.5c0.5,0.5,1,1,1.5,1.5c0.3,0.3,0.7,0.7,1,1c10.7,9.7,16.9,23.6,16.9,38.1c0,10.3-3,20.2-8.7,28.7
			C29.1,177,22.9,160.8,22.9,143z M97.2,217.4c-15,0-29-4.4-40.6-12.1c9.1-12.3,14.5-27.6,14.5-44.1c0-21.8-9.4-41.4-24.4-55l0,0
			c-14.7-13.6-23.9-33-23.9-54.6c0-10.1,2-19.8,5.7-28.6c11.2,26.9,37.7,45.8,68.6,45.8c23.8,0,45,11.2,58.6,28.6
			c9.9,12.6,15.8,28.5,15.8,45.8C171.6,184.1,138.3,217.4,97.2,217.4z"/>
	</g>
</g>
</svg>
