<?xml version="1.0" encoding="utf-8"?>
<!-- Generator: Adobe Illustrator 25.4.1, SVG Export Plug-In . SVG Version: 6.00 Build 0)  -->
<svg version="1.1" id="레이어_1" xmlns="http://www.w3.org/2000/svg" xmlns:xlink="http://www.w3.org/1999/xlink" x="0px"
	 y="0px" viewBox="0 0 1080 1080" style="enable-background:new 0 0 1080 1080;" xml:space="preserve">
<style type="text/css">
	.st0{fill:#151F6D;}
</style>
<g>
	<g>
		<path class="st0" d="M793,274.5c-61.3-78.4-153.5-123.4-253-123.4c-68.9,0-130.5-41.1-156.9-104.6C371.3,18.4,343.9,0,313.4,0
			c0,0,0,0-0.1,0c-30.5,0-57.9,18.3-69.7,46.4c-16.4,39.2-24.7,80.8-24.7,123.6c0,58.7,16.3,115.9,46.1,165.5
			c-28.9,38-46.1,85.4-46.1,136.7c0,110.3,56,207.7,140.9,265.5c1.5,1.1,3,2.3,4.6,3.3c52.2,34.2,112.9,52.2,175.5,52.2
			c177,0,321.1-144,321.1-321.1C861.1,399.8,837.5,331.4,793,274.5z M294.5,472.2c0-27,7.1-52.3,19.6-74.3c1.7,1.7,3.3,3.4,5,5
			c1.1,1.1,2.2,2.2,3.4,3.3c35.4,32.1,55.7,78,55.7,125.8c0,34.1-9.9,66.7-28.8,94.7C315.1,584.5,294.5,530.8,294.5,472.2z
			 M540,717.7c-49.5,0-95.6-14.7-134.2-39.9C436,637,453.8,586.6,453.8,532c0-72-31-136.8-80.5-181.7l0-0.1
			c-48.5-44.8-78.9-109-78.9-180.2c0-33.5,6.7-65.4,18.9-94.4c37,88.7,124.5,151.1,226.7,151.1c78.6,0,148.6,36.9,193.5,94.4
			c32.6,41.7,52,94.1,52,151.1C785.5,607.8,675.6,717.7,540,717.7z"/>
		<g>
			<path class="st0" d="M143.3,961.6c5.3,7,8,15.6,8,25.8c0,14.5-5.6,25.6-16.9,33.3c-11.2,7.8-27.6,11.7-49.1,11.7H0v-165h80.6
				c20.1,0,35.5,3.8,46.3,11.5c10.8,7.7,16.1,18.2,16.1,31.3c0,8-1.9,15.2-5.8,21.4c-3.9,6.3-9.2,11.2-16.1,14.8
				C130.6,949.6,137.9,954.6,143.3,961.6z M37.9,896.2v38.9h37.9c9.4,0,16.6-1.7,21.4-5s7.3-8.2,7.3-14.6s-2.4-11.3-7.3-14.5
				c-4.9-3.2-12-4.8-21.4-4.8H37.9z M105.2,998.7c5.1-3.3,7.7-8.4,7.7-15.3c0-13.7-10.1-20.5-30.4-20.5H37.9v40.8h44.5
				C92.5,1003.7,100.1,1002,105.2,998.7z"/>
			<path class="st0" d="M296.5,905.6v126.8h-34.9v-15.1c-4.9,5.5-10.7,9.7-17.4,12.6c-6.8,2.9-14.1,4.4-21.9,4.4
				c-16.6,0-29.9-4.8-39.6-14.4c-9.7-9.6-14.6-23.8-14.6-42.7v-71.6h36.8v66.2c0,20.4,8.6,30.6,25.7,30.6c8.8,0,15.9-2.9,21.2-8.6
				c5.3-5.7,8-14.3,8-25.6v-62.7H296.5z"/>
			<path class="st0" d="M320.5,867.4l36.8,14.6v150.4h-36.8V867.4z"/>
			<path class="st0" d="M381.5,882l36.8-14.6v165h-36.8V882z"/>
			<path class="st0" d="M458.1,1030.4c-10.1-2.6-18.1-5.8-24-9.8l12.2-26.4c5.7,3.6,12.5,6.6,20.5,8.8s15.9,3.4,23.6,3.4
				c15.5,0,23.3-3.8,23.3-11.5c0-3.6-2.1-6.2-6.4-7.8c-4.2-1.6-10.8-2.9-19.6-4c-10.4-1.6-18.9-3.4-25.7-5.4s-12.6-5.7-17.6-10.8
				c-5-5.2-7.4-12.6-7.4-22.2c0-8,2.3-15.1,7-21.3c4.6-6.2,11.4-11,20.3-14.5c8.9-3.5,19.4-5.2,31.5-5.2c9,0,17.9,1,26.7,3
				c8.9,2,16.2,4.7,22,8.1L532.3,941c-11.2-6.3-23.3-9.4-36.5-9.4c-7.9,0-13.8,1.1-17.7,3.3c-3.9,2.2-5.9,5-5.9,8.5
				c0,3.9,2.1,6.7,6.4,8.2s11,3.1,20.3,4.5c10.4,1.7,18.9,3.6,25.4,5.5c6.6,2,12.3,5.5,17.2,10.7s7.3,12.4,7.3,21.7
				c0,7.9-2.4,14.8-7.1,21c-4.7,6.1-11.6,10.9-20.6,14.3c-9,3.4-19.8,5.1-32.2,5.1C478.5,1034.3,468.2,1033,458.1,1030.4z"/>
			<path class="st0" d="M689.5,979.4h-95.9c1.7,7.9,5.8,14.1,12.3,18.6c6.4,4.6,14.5,6.8,24,6.8c6.6,0,12.5-1,17.6-3
				c5.1-2,9.9-5.1,14.3-9.3l19.6,21.2c-11.9,13.7-29.4,20.5-52.3,20.5c-14.3,0-27-2.8-37.9-8.4c-11-5.6-19.5-13.3-25.5-23.2
				c-6-9.9-9-21.1-9-33.7c0-12.4,3-23.6,8.8-33.6c5.9-10,14-17.8,24.3-23.3c10.3-5.6,21.8-8.4,34.5-8.4c12.4,0,23.6,2.7,33.7,8
				c10,5.3,18,13,23.7,23s8.6,21.6,8.6,34.8C690.2,970,690,973.2,689.5,979.4z M603.5,938.6c-5.7,4.7-9.1,11.2-10.4,19.3h62.5
				c-1.3-8-4.7-14.4-10.4-19.2c-5.7-4.8-12.6-7.2-20.7-7.2C616.2,931.5,609.2,933.9,603.5,938.6z"/>
			<path class="st0" d="M830,905.6l-57.3,134.6c-5.8,14.6-13,24.9-21.6,30.9s-18.9,9-31,9c-6.6,0-13.1-1-19.6-3.1
				s-11.7-4.9-15.8-8.5l13.4-26.2c2.8,2.5,6.1,4.5,9.8,5.9s7.3,2.1,11,2.1c5,0,9.1-1.2,12.3-3.7c3.1-2.4,6-6.5,8.5-12.1l0.5-1.2
				l-54.9-127.7h37.9l35.6,86l35.8-86L830,905.6L830,905.6z"/>
			<path class="st0" d="M957.7,979.4h-95.9c1.7,7.9,5.8,14.1,12.3,18.6c6.4,4.6,14.5,6.8,24,6.8c6.6,0,12.5-1,17.6-3
				c5.1-2,9.9-5.1,14.3-9.3l19.6,21.2c-11.9,13.7-29.4,20.5-52.3,20.5c-14.3,0-27-2.8-37.9-8.4c-11-5.6-19.5-13.3-25.5-23.2
				c-6-9.9-9-21.1-9-33.7c0-12.4,3-23.6,8.8-33.6c5.9-10,14-17.8,24.3-23.3c10.3-5.6,21.8-8.4,34.5-8.4c12.4,0,23.6,2.7,33.7,8
				c10,5.3,18,13,23.7,23s8.6,21.6,8.6,34.8C958.4,970,958.2,973.2,957.7,979.4z M871.7,938.6c-5.7,4.7-9.1,11.2-10.4,19.3h62.5
				c-1.3-8-4.7-14.4-10.4-19.2c-5.7-4.8-12.6-7.2-20.7-7.2C884.3,931.5,877.3,933.9,871.7,938.6z"/>
			<path class="st0" d="M989.3,1030.4c-10.1-2.6-18.1-5.8-24-9.8l12.3-26.4c5.7,3.6,12.5,6.6,20.5,8.8s15.9,3.4,23.6,3.4
				c15.6,0,23.3-3.8,23.3-11.5c0-3.6-2.1-6.2-6.4-7.8c-4.2-1.6-10.8-2.9-19.6-4c-10.4-1.6-18.9-3.4-25.7-5.4s-12.6-5.7-17.6-10.8
				c-5-5.2-7.4-12.6-7.4-22.2c0-8,2.3-15.1,7-21.3c4.6-6.2,11.4-11,20.3-14.5c8.9-3.5,19.4-5.2,31.5-5.2c9,0,17.9,1,26.8,3
				c8.9,2,16.2,4.7,22,8.1l-12.2,26.2c-11.2-6.3-23.3-9.4-36.5-9.4c-7.9,0-13.8,1.1-17.7,3.3c-3.9,2.2-5.9,5-5.9,8.5
				c0,3.9,2.1,6.7,6.4,8.2s11,3.1,20.3,4.5c10.4,1.7,18.8,3.6,25.4,5.5c6.6,2,12.3,5.5,17.2,10.7s7.3,12.4,7.3,21.7
				c0,7.9-2.4,14.8-7.1,21c-4.7,6.1-11.6,10.9-20.6,14.3c-9,3.4-19.8,5.1-32.2,5.1C1009.6,1034.3,999.3,1033,989.3,1030.4z"/>
		</g>
	</g>
</g>
</svg>
